# xmcd
#
# Track frame offsets:
# 150
# 11607
# 20475
# 34062
# 43020
# 51782
# 61685
# 74237
# 82392
# 101085
# 108932
#
# Disc length: 1516 seconds
#
#
# Revision: 0
# Processed by: cddbd v1.4PL0 Copyright (c) Steve Scherf et al.
# Submitted via: FreeRIP 2.30 
#
DISCID=9605ea0b
DTITLE=John Schwab Band - You Thought I Was Something Special...
DYEAR=1900
DGENRE=Comedy
TTITLE0=Upper Tax Bracket Blues
TTITLE1=Bend Over Johnny
TTITLE2=PMS
TTITLE3=You Thought I Was Something Special
TTITLE4=Girl From Ipanema
TTITLE5=Honey
TTITLE6=Yo Daddy
TTITLE7=Whole Lotta Lounge
TTITLE8=All The Money in the World
TTITLE9=My Name Is Bert
TTITLE10=My Dixie
EXTD=
EXTT0=
EXTT1=
EXTT2=
EXTT3=
EXTT4=
EXTT5=
EXTT6=
EXTT7=
EXTT8=
EXTT9=
EXTT10=
PLAYORDER=
